<svg xmlns="http://www.w3.org/2000/svg" width="1280" height="720" viewBox="0 0 1280 720" role="img" aria-label="Insect Smash gameplay screenshot">
  <defs>
    <linearGradient id="bg" x1="0" x2="0" y1="0" y2="1">
      <stop offset="0%" stop-color="#264653"/>
      <stop offset="100%" stop-color="#1d3557"/>
    </linearGradient>
    <filter id="shadow" x="-20%" y="-20%" width="140%" height="140%">
      <feDropShadow dx="0" dy="6" stdDeviation="8" flood-color="#000" flood-opacity="0.3"/>
    </filter>
  </defs>

  <rect width="1280" height="720" fill="#0d1b2a"/>
  <rect x="24" y="24" width="1232" height="72" rx="12" fill="#1b263b" opacity="0.96"/>
  <g fill="#f8f9fa" font-family="Segoe UI, Arial, sans-serif" font-size="30" font-weight="700">
    <text x="52" y="69">Score: 42</text>
    <text x="300" y="69">Combo: x2.0</text>
    <text x="570" y="69">High Score: 105</text>
    <text x="910" y="69">Time: 17s</text>
    <text x="1085" y="69">Misses: 4</text>
  </g>

  <rect x="24" y="116" width="1232" height="580" rx="16" fill="url(#bg)"/>

  <g stroke="rgba(255,255,255,0.10)" stroke-width="2">
    <path d="M24 190 C250 170, 480 220, 740 185 C970 150, 1120 220, 1256 195" fill="none"/>
    <path d="M24 290 C260 310, 500 260, 760 295 C980 325, 1120 280, 1256 300" fill="none"/>
    <path d="M24 410 C250 380, 480 430, 740 390 C980 355, 1120 430, 1256 400" fill="none"/>
    <path d="M24 520 C260 550, 500 500, 760 530 C980 560, 1120 500, 1256 540" fill="none"/>
  </g>

  <g filter="url(#shadow)">
    <ellipse cx="320" cy="250" rx="26" ry="19" fill="#f4a261" stroke="#000" stroke-opacity="0.35" stroke-width="3"/>
    <ellipse cx="620" cy="360" rx="28" ry="20" fill="#a8dadc" stroke="#000" stroke-opacity="0.35" stroke-width="3"/>
    <ellipse cx="900" cy="265" rx="22" ry="16" fill="#f1fa8c" stroke="#000" stroke-opacity="0.35" stroke-width="3"/>
    <ellipse cx="1040" cy="470" rx="26" ry="19" fill="#a8dadc" stroke="#000" stroke-opacity="0.35" stroke-width="3"/>
    <ellipse cx="470" cy="515" rx="24" ry="17" fill="#f4a261" stroke="#000" stroke-opacity="0.35" stroke-width="3"/>
  </g>

  <g fill="#b7f59e" font-family="Segoe UI, Arial, sans-serif" font-weight="800" font-size="34">
    <text x="655" y="330">+1</text>
    <text x="1015" y="440">+1</text>
    <text x="345" y="220">+1</text>
  </g>

  <g fill="#80ed99">
    <circle cx="640" cy="360" r="4"/>
    <circle cx="652" cy="354" r="3"/>
    <circle cx="629" cy="349" r="3"/>
    <circle cx="1008" cy="477" r="4"/>
    <circle cx="1020" cy="470" r="3"/>
    <circle cx="997" cy="462" r="3"/>
  </g>

  <text x="40" y="708" fill="#ffffff" fill-opacity="0.75" font-family="Segoe UI, Arial, sans-serif" font-size="20">
    Insect Smash - sample gameplay screenshot
  </text>
</svg>
